<svg xmlns="http://www.w3.org/2000/svg" width="40" height="40" viewBox="0 0 40 40"><g transform="translate(0 9.467)"><path d="M38.007,131.7l-1.815-.227a12.478,12.478,0,0,0-2.33-3.679l1.334-5.653a.781.781,0,0,0-.76-.961h-.173a5.383,5.383,0,0,0-5,3.438,12.288,12.288,0,0,0-1.708-.54.781.781,0,0,0-.36,1.521,10.818,10.818,0,0,1,5.161,2.872.779.779,0,0,0,.19.195,10.873,10.873,0,0,1,2.348,3.792.781.781,0,0,0,.637.508l2.278.285a.715.715,0,0,1,.625.708v3.939a.715.715,0,0,1-.625.708l-2.111.264a.781.781,0,0,0-.649.542,10.839,10.839,0,0,1-3.442,5.117.781.781,0,0,0-.283.6v4.318a.7.7,0,0,1-.7.7H26.094a.7.7,0,0,1-.7-.7V147.8a.781.781,0,0,0-.781-.781H18.046a.781.781,0,0,0-.781.781v1.646a.7.7,0,0,1-.7.7H12.03a.7.7,0,0,1-.7-.7V146.4a.781.781,0,0,0-.409-.687A10.858,10.858,0,0,1,16.091,125.3h.979a.781.781,0,0,0,0-1.562h-.979a12.441,12.441,0,0,0-12.042,9.379H3.477a1.914,1.914,0,1,1,0-3.828.781.781,0,0,0,0-1.562,3.477,3.477,0,1,0,0,6.953H3.76a12.422,12.422,0,0,0,6,12.168v2.594a2.268,2.268,0,0,0,2.265,2.265h4.532a2.268,2.268,0,0,0,2.265-2.265v-.865h5v.865a2.268,2.268,0,0,0,2.265,2.265h4.532a2.268,2.268,0,0,0,2.265-2.265v-3.958a12.393,12.393,0,0,0,3.492-5.132l1.624-.2A2.279,2.279,0,0,0,40,137.894v-3.939A2.279,2.279,0,0,0,38.007,131.7Zm-5.456-5.149a12.458,12.458,0,0,0-1.864-1.262,3.815,3.815,0,0,1,2.74-2.451Z" transform="translate(0 -121.178)" fill="#666"/></g><g transform="translate(29.766 19.609)"><path d="M382.335,251.229a.781.781,0,1,0,.229.552A.787.787,0,0,0,382.335,251.229Z" transform="translate(-381.001 -251)" fill="#666"/></g><g transform="translate(22.128 4.557)"><path d="M284.023,58.333a.781.781,0,0,0-.781.781v3.1a.781.781,0,0,0,1.563,0v-3.1A.781.781,0,0,0,284.023,58.333Z" transform="translate(-283.242 -58.333)" fill="#666"/></g><g transform="translate(22.128 1.723)"><path d="M284.575,22.279a.781.781,0,1,0,.229.552A.787.787,0,0,0,284.575,22.279Z" transform="translate(-283.241 -22.05)" fill="#666"/></g><g transform="translate(15.781)"><path d="M202.781,0A.781.781,0,0,0,202,.781V2.109a.781.781,0,0,0,1.563,0V.781A.781.781,0,0,0,202.781,0Z" transform="translate(-202)" fill="#666"/></g><g transform="translate(7.339 23.669)"><path d="M95.5,303.75a.781.781,0,1,0-1.563,0v.041a.781.781,0,0,0,.781.776h0a.781.781,0,0,0,.776-.786Z" transform="translate(-93.938 -302.969)" fill="#666"/></g><g transform="translate(7.864 26.52)"><path d="M105.152,343.538a7.242,7.242,0,0,1-2.985-3.575.781.781,0,0,0-1.459.559,8.811,8.811,0,0,0,3.632,4.351.781.781,0,1,0,.812-1.335Z" transform="translate(-100.656 -339.46)" fill="#666"/></g><g transform="translate(13.281 3.754)"><path d="M173.281,48.052a3.281,3.281,0,1,0,3.281,3.281A3.285,3.285,0,0,0,173.281,48.052Zm0,5A1.719,1.719,0,1,1,175,51.333,1.721,1.721,0,0,1,173.281,53.052Z" transform="translate(-170 -48.052)" fill="#666"/></g><g transform="translate(15.469 11.563)"><path d="M208.938,153h-.7a3.281,3.281,0,1,0-5.587,0h-3.866a.781.781,0,0,0,0,1.563h10.156a.781.781,0,0,0,0-1.562Zm-3.5,0a1.719,1.719,0,1,1,1.719-1.719A1.721,1.721,0,0,1,205.441,153Z" transform="translate(-198 -148)" fill="#666"/></g></svg>