<svg xmlns="http://www.w3.org/2000/svg" width="30" height="30" viewBox="0 0 30 30"><path d="M28.663,12.1c-.564-.084-1.143-.166-1.721-.241a.17.17,0,0,1-.145-.121,12.176,12.176,0,0,0-1.151-2.777.171.171,0,0,1,.016-.189c.355-.462.708-.929,1.047-1.388a1.582,1.582,0,0,0-.155-2.046l-1.9-1.9a1.581,1.581,0,0,0-2.046-.155c-.458.339-.925.691-1.388,1.047a.171.171,0,0,1-.189.016A12.176,12.176,0,0,0,18.259,3.2a.17.17,0,0,1-.121-.145c-.076-.579-.157-1.158-.241-1.721A1.581,1.581,0,0,0,16.341,0H13.659A1.581,1.581,0,0,0,12.1,1.337c-.084.563-.165,1.142-.241,1.721a.17.17,0,0,1-.121.145A12.18,12.18,0,0,0,8.965,4.354a.171.171,0,0,1-.189-.016c-.463-.356-.93-.709-1.388-1.047a1.581,1.581,0,0,0-2.046.155l-1.9,1.9a1.581,1.581,0,0,0-.155,2.046c.34.46.692.927,1.047,1.388a.171.171,0,0,1,.016.189A12.177,12.177,0,0,0,3.2,11.741a.17.17,0,0,1-.145.121c-.578.075-1.157.156-1.721.241A1.581,1.581,0,0,0,0,13.659v2.682A1.581,1.581,0,0,0,1.337,17.9c.564.084,1.144.165,1.721.241a.17.17,0,0,1,.145.121,12.178,12.178,0,0,0,1.151,2.777.171.171,0,0,1-.016.189c-.356.462-.708.929-1.047,1.388a1.581,1.581,0,0,0,.155,2.046l1.9,1.9a1.581,1.581,0,0,0,2.046.155c.458-.339.925-.691,1.388-1.047a.171.171,0,0,1,.189-.016A12.178,12.178,0,0,0,11.741,26.8a.17.17,0,0,1,.121.145c.076.579.157,1.158.241,1.721A1.581,1.581,0,0,0,13.659,30h2.682A1.581,1.581,0,0,0,17.9,28.662c.084-.564.165-1.143.241-1.721a.17.17,0,0,1,.121-.145,12.182,12.182,0,0,0,2.777-1.151.172.172,0,0,1,.189.016c.463.356.93.709,1.388,1.047a1.581,1.581,0,0,0,2.046-.155l1.9-1.9a1.582,1.582,0,0,0,.155-2.046c-.34-.459-.692-.926-1.047-1.388a.171.171,0,0,1-.016-.189A12.178,12.178,0,0,0,26.8,18.259a.17.17,0,0,1,.145-.121c.578-.075,1.157-.156,1.721-.241A1.581,1.581,0,0,0,30,16.341V13.659A1.581,1.581,0,0,0,28.663,12.1ZM28.6,16.341a.172.172,0,0,1-.144.171c-.556.083-1.126.163-1.7.237a1.568,1.568,0,0,0-1.314,1.138,10.778,10.778,0,0,1-1.018,2.457,1.569,1.569,0,0,0,.124,1.735c.35.455.7.915,1.031,1.367a.172.172,0,0,1-.019.222l-1.9,1.9a.172.172,0,0,1-.222.019c-.451-.334-.911-.681-1.367-1.032a1.569,1.569,0,0,0-1.735-.124,10.78,10.78,0,0,1-2.457,1.018,1.568,1.568,0,0,0-1.138,1.314c-.074.57-.154,1.14-.237,1.7a.172.172,0,0,1-.171.144H13.659a.172.172,0,0,1-.171-.144c-.083-.555-.163-1.125-.237-1.7a1.568,1.568,0,0,0-1.138-1.314,10.776,10.776,0,0,1-2.457-1.018,1.568,1.568,0,0,0-1.735.124c-.456.351-.916.7-1.367,1.032a.172.172,0,0,1-.222-.019l-1.9-1.9a.172.172,0,0,1-.019-.222c.334-.452.681-.911,1.031-1.367a1.569,1.569,0,0,0,.124-1.735,10.777,10.777,0,0,1-1.018-2.457A1.568,1.568,0,0,0,3.24,16.749c-.569-.074-1.139-.154-1.7-.237a.172.172,0,0,1-.144-.171V13.659a.172.172,0,0,1,.144-.171c.556-.083,1.126-.163,1.7-.237a1.568,1.568,0,0,0,1.314-1.138A10.773,10.773,0,0,1,5.572,9.657a1.569,1.569,0,0,0-.124-1.735c-.35-.454-.7-.914-1.031-1.367a.172.172,0,0,1,.019-.222l1.9-1.9a.172.172,0,0,1,.222-.019c.451.334.911.681,1.367,1.032a1.569,1.569,0,0,0,1.735.124,10.777,10.777,0,0,1,2.457-1.018A1.568,1.568,0,0,0,13.251,3.24c.074-.57.154-1.141.237-1.7a.172.172,0,0,1,.171-.144h2.682a.172.172,0,0,1,.171.144c.083.555.163,1.125.237,1.7a1.568,1.568,0,0,0,1.138,1.314,10.781,10.781,0,0,1,2.457,1.018,1.569,1.569,0,0,0,1.735-.124c.456-.351.916-.7,1.367-1.031a.172.172,0,0,1,.222.019l1.9,1.9a.172.172,0,0,1,.019.222c-.334.452-.681.912-1.031,1.367a1.569,1.569,0,0,0-.124,1.735,10.777,10.777,0,0,1,1.018,2.457,1.568,1.568,0,0,0,1.314,1.138c.569.074,1.14.154,1.7.237a.172.172,0,0,1,.144.171v2.682Z" fill="#49b742"/><g transform="translate(8.488 8.488)"><path d="M151.378,144.866a6.512,6.512,0,1,0,6.512,6.512A6.519,6.519,0,0,0,151.378,144.866Zm0,11.623a5.111,5.111,0,1,1,5.111-5.111A5.117,5.117,0,0,1,151.378,156.489Z" transform="translate(-144.866 -144.866)" fill="#49b742"/></g></svg>