<svg xmlns="http://www.w3.org/2000/svg" width="30" height="30" viewBox="0 0 30 30"><g transform="translate(0 7.1)"><path d="M28.505,129.068l-1.361-.17a9.359,9.359,0,0,0-1.747-2.759l1-4.239a.586.586,0,0,0-.57-.721H25.7a4.037,4.037,0,0,0-3.747,2.578,9.215,9.215,0,0,0-1.281-.405.586.586,0,1,0-.27,1.14,8.114,8.114,0,0,1,3.871,2.154.584.584,0,0,0,.142.146,8.154,8.154,0,0,1,1.761,2.844.586.586,0,0,0,.478.381l1.709.214a.536.536,0,0,1,.469.531v2.954a.536.536,0,0,1-.469.531l-1.583.2a.586.586,0,0,0-.486.406,8.13,8.13,0,0,1-2.581,3.838.586.586,0,0,0-.212.451v3.239a.528.528,0,0,1-.527.527h-3.4a.528.528,0,0,1-.527-.527v-1.234a.586.586,0,0,0-.586-.586H13.535a.586.586,0,0,0-.586.586v1.234a.528.528,0,0,1-.527.527h-3.4a.528.528,0,0,1-.527-.527v-2.287a.586.586,0,0,0-.306-.515,8.144,8.144,0,0,1,3.879-15.3H12.8a.586.586,0,0,0,0-1.172h-.734a9.331,9.331,0,0,0-9.032,7.034H2.607a1.436,1.436,0,1,1,0-2.871.586.586,0,0,0,0-1.172,2.607,2.607,0,1,0,0,5.215H2.82a9.316,9.316,0,0,0,4.5,9.126v1.946a1.7,1.7,0,0,0,1.7,1.7h3.4a1.7,1.7,0,0,0,1.7-1.7v-.648h3.751v.648a1.7,1.7,0,0,0,1.7,1.7h3.4a1.7,1.7,0,0,0,1.7-1.7V139.41a9.3,9.3,0,0,0,2.619-3.849l1.218-.153A1.71,1.71,0,0,0,30,133.715v-2.954A1.71,1.71,0,0,0,28.505,129.068Zm-4.092-3.862a9.344,9.344,0,0,0-1.4-.946,2.861,2.861,0,0,1,2.055-1.838Z" transform="translate(0 -121.178)" fill="#49b742"/></g><g transform="translate(22.324 14.707)"><path d="M382,251.172a.585.585,0,1,0,.172.414A.59.59,0,0,0,382,251.172Z" transform="translate(-381.001 -251)" fill="#49b742"/></g><g transform="translate(16.596 3.418)"><path d="M283.828,58.333a.586.586,0,0,0-.586.586v2.324a.586.586,0,1,0,1.172,0V58.919A.586.586,0,0,0,283.828,58.333Z" transform="translate(-283.242 -58.333)" fill="#49b742"/></g><g transform="translate(16.596 1.292)"><path d="M284.241,22.222a.586.586,0,1,0,.172.414A.59.59,0,0,0,284.241,22.222Z" transform="translate(-283.241 -22.05)" fill="#49b742"/></g><g transform="translate(11.836)"><path d="M202.586,0A.586.586,0,0,0,202,.586v1a.586.586,0,0,0,1.172,0v-1A.586.586,0,0,0,202.586,0Z" transform="translate(-202)" fill="#49b742"/></g><g transform="translate(5.504 17.752)"><path d="M95.11,303.555a.586.586,0,1,0-1.172,0v.031a.586.586,0,0,0,.586.582h0a.586.586,0,0,0,.582-.59Z" transform="translate(-93.938 -302.969)" fill="#49b742"/></g><g transform="translate(5.898 19.89)"><path d="M104.028,342.518a5.431,5.431,0,0,1-2.239-2.682.586.586,0,0,0-1.094.419,6.608,6.608,0,0,0,2.724,3.263.586.586,0,1,0,.609-1Z" transform="translate(-100.656 -339.46)" fill="#49b742"/></g><g transform="translate(9.961 2.816)"><path d="M172.461,48.052a2.461,2.461,0,1,0,2.461,2.461A2.464,2.464,0,0,0,172.461,48.052Zm0,3.75a1.289,1.289,0,1,1,1.289-1.289A1.291,1.291,0,0,1,172.461,51.8Z" transform="translate(-170 -48.052)" fill="#49b742"/></g><g transform="translate(11.602 8.672)"><path d="M206.2,151.75h-.527a2.461,2.461,0,1,0-4.19,0h-2.9a.586.586,0,0,0,0,1.172H206.2a.586.586,0,0,0,0-1.172Zm-2.623,0a1.289,1.289,0,1,1,1.289-1.289A1.291,1.291,0,0,1,203.581,151.75Z" transform="translate(-198 -148)" fill="#49b742"/></g></svg>