<svg xmlns="http://www.w3.org/2000/svg" width="30" height="30" viewBox="0 0 30 30"><path d="M452.586,367.172a.586.586,0,1,0-.586-.586A.586.586,0,0,0,452.586,367.172Zm0,0" transform="translate(-425.516 -344.555)" fill="#49b742"/><path d="M1.758,30H28.242A1.76,1.76,0,0,0,30,28.242V6.445a.586.586,0,0,0-.586-.586h-4.1a5.859,5.859,0,0,0-11.719,0H9.141a.586.586,0,0,0-.586.586v6.8H.586A.586.586,0,0,0,0,13.828V28.242A1.76,1.76,0,0,0,1.758,30Zm-.586-1.758V26.133H14.766v2.109a.586.586,0,0,1-.586.586H1.758A.586.586,0,0,1,1.172,28.242Zm27.07.586H15.837a1.75,1.75,0,0,0,.1-.586V26.133H28.828v2.109A.586.586,0,0,1,28.242,28.828ZM19.453,1.172a4.693,4.693,0,0,1,4.688,4.688H14.766A4.684,4.684,0,0,1,19.453,1.172ZM9.727,7.031h3.867v2.7h-.586a.586.586,0,0,0,0,1.172h2.344a.586.586,0,0,0,0-1.172h-.586v-2.7h9.375v2.7h-.586a.586.586,0,0,0,0,1.172H25.9a.586.586,0,0,0,0-1.172h-.586v-2.7h3.516v17.93H15.938V13.828a.586.586,0,0,0-.586-.586H9.727Zm5.039,7.383V24.961H1.172V14.414Zm0,0" fill="#49b742"/><path d="M66.586,287.172v1.172a3.516,3.516,0,0,0,7.031,0v-1.172a.586.586,0,0,0,0-1.172H72.445a.586.586,0,0,0,0,1.172v1.172a2.344,2.344,0,0,1-4.687,0v-1.172a.586.586,0,0,0,0-1.172H66.586a.586.586,0,0,0,0,1.172Zm0,0" transform="translate(-62.133 -269.242)" fill="#49b742"/><path d="M452.586,251.859a.586.586,0,0,0,.586-.586v-4.687a.586.586,0,0,0-1.172,0v4.688A.586.586,0,0,0,452.586,251.859Zm0,0" transform="translate(-425.516 -231.586)" fill="#49b742"/></svg>