<svg xmlns="http://www.w3.org/2000/svg" width="24" height="32.199" viewBox="0 0 24 32.199"><g transform="translate(-988.456 -542.021)"><path d="M1011.955,574.22a.518.518,0,0,1-.207-.044l-5.5-2.451-5.587,2.45a.5.5,0,0,1-.2.044.517.517,0,0,1-.205-.044l-5.5-2.45-5.586,2.45a.485.485,0,0,1-.205.044.542.542,0,0,1-.216-.048.507.507,0,0,1-.237-.67l4.326-9.15a.494.494,0,0,1,.249-.244l2.482-1.1-3.906-6.547a9.9,9.9,0,1,1,17.62-.029L1005.352,563l2.469,1.1a.5.5,0,0,1,.256.247l4.329,9.155a.5.5,0,0,1-.452.717Zm-17.248-3.565a.512.512,0,0,1,.2.044l5.5,2.45L1006,570.7a.5.5,0,0,1,.2-.044.512.512,0,0,1,.2.044l4.511,2.009-3.65-7.725-2.439-1.115-2.554,4.282a2.121,2.121,0,0,1-3.644,0l-2.554-4.282-2.387,1.065-3.7,7.776L994.5,570.7A.5.5,0,0,1,994.707,570.655Zm5.622-27.63a8.9,8.9,0,0,0-7.813,12.921l6.979,11.691a1.123,1.123,0,0,0,.958.545,1.125,1.125,0,0,0,.961-.544l6.964-11.673a8.9,8.9,0,0,0-7.925-12.94h-.124Z" transform="translate(0 0)" fill="#49b742"/><path d="M1000.155,554.969a3.3,3.3,0,1,1,3.3-3.3A3.3,3.3,0,0,1,1000.155,554.969Zm0-5.621a2.324,2.324,0,1,0,2.324,2.325A2.327,2.327,0,0,0,1000.155,549.348Z" transform="translate(0.299 0.205)" fill="#49b742"/></g></svg>