<svg xmlns="http://www.w3.org/2000/svg" width="40" height="33.745" viewBox="0 0 40 33.745"><g transform="translate(0 -40.031)"><g transform="translate(8.872 60.714)"><path d="M120.037,304.779h-5.7a.781.781,0,0,0,0,1.563h5.7a.781.781,0,0,0,0-1.562Z" transform="translate(-113.557 -304.779)" fill="#666"/></g><g transform="translate(18.427 60.714)"><path d="M242.346,304.779h-5.7a.781.781,0,1,0,0,1.563h5.7a.781.781,0,0,0,0-1.562Z" transform="translate(-235.866 -304.779)" fill="#666"/></g><g transform="translate(28.115 60.714)"><path d="M366.348,304.779h-5.7a.781.781,0,0,0,0,1.563h5.7a.781.781,0,0,0,0-1.562Z" transform="translate(-359.868 -304.779)" fill="#666"/></g><g transform="translate(24.431 63.926)"><path d="M320.76,345.89a3.2,3.2,0,0,0-2.422,1.11,3.2,3.2,0,1,0,0,4.185,3.2,3.2,0,1,0,2.422-5.3Zm-4.844,4.844a1.641,1.641,0,1,1,1.641-1.641A1.642,1.642,0,0,1,315.916,350.734Zm4.844,0a1.641,1.641,0,1,1,1.641-1.641A1.642,1.642,0,0,1,320.76,350.734Z" transform="translate(-312.713 -345.89)" fill="#666"/></g><g transform="translate(8.834 52.481)"><path d="M120.557,199.392h-6.7a.781.781,0,0,0-.781.781v4.279a.781.781,0,0,0,.781.781h6.7a.781.781,0,0,0,.781-.781v-4.279A.781.781,0,0,0,120.557,199.392Zm-.781,4.279h-5.14v-2.716h5.14Z" transform="translate(-113.073 -199.392)" fill="#666"/></g><g transform="translate(13.151 72.214)"><path d="M169.125,451.969h-.012a.781.781,0,1,0,0,1.563h.012a.781.781,0,0,0,0-1.562Z" transform="translate(-168.332 -451.969)" fill="#666"/></g><g transform="translate(0 40.031)"><path d="M37.357,49.174H35.781v-6.5a2.646,2.646,0,0,0-2.643-2.643H22.109a.781.781,0,0,0,0,1.563H33.138a1.082,1.082,0,0,1,1.081,1.081v2.357H1.563V42.676A1.082,1.082,0,0,1,2.643,41.6H14.922a.781.781,0,0,0,0-1.562H2.643A2.646,2.646,0,0,0,0,42.676V61.994a2.646,2.646,0,0,0,2.643,2.643H4.219v6.5a2.646,2.646,0,0,0,2.643,2.643h3.68a.781.781,0,0,0,0-1.562H6.862a1.082,1.082,0,0,1-1.081-1.081V51.817a1.082,1.082,0,0,1,1.081-1.081H37.357a1.082,1.082,0,0,1,1.081,1.081V71.135a1.082,1.082,0,0,1-1.081,1.081H16.848a.781.781,0,0,0,0,1.563H37.357A2.646,2.646,0,0,0,40,71.135V51.817A2.646,2.646,0,0,0,37.357,49.174ZM4.219,51.817V63.075H2.643a1.082,1.082,0,0,1-1.081-1.081V51.6H4.229C4.223,51.669,4.219,51.742,4.219,51.817Zm30-2.643H6.862a2.637,2.637,0,0,0-1.949.859H1.563V46.6H34.219Z" transform="translate(0 -40.033)" fill="#666"/></g><g transform="translate(17.734 40.031)"><path d="M228.334,40.26a.781.781,0,1,0,.229.552A.787.787,0,0,0,228.334,40.26Z" transform="translate(-227 -40.031)" fill="#666"/></g></g></svg>