<svg xmlns="http://www.w3.org/2000/svg" width="30" height="30" viewBox="0 0 30 30"><g transform="translate(0 0)"><path d="M87.423,321.618l-1.273-.763a2.506,2.506,0,0,0-1.285-.355H82.949a4.523,4.523,0,0,0-1.162.15l-5.774,1.55a2.014,2.014,0,0,0-1.36,1.261l-5.079-2.748a1.99,1.99,0,0,0-1.359-.225,1.876,1.876,0,0,0-.506.166,1.966,1.966,0,0,0-.859.8,2,2,0,0,0-.264.995,1.981,1.981,0,0,0,.988,1.729l9.1,5.447a2.5,2.5,0,0,0,1.316.375h7.045a2.493,2.493,0,0,0,.919-.175l1.467-.579V330h5V320h-5ZM85.589,328.9a1.5,1.5,0,0,1-.55.1H77.993a1.5,1.5,0,0,1-.8-.229l-9.115-5.453a1,1,0,0,1-.5-.868,1.016,1.016,0,0,1,.134-.5.983.983,0,0,1,.429-.4.942.942,0,0,1,.25-.081,1.052,1.052,0,0,1,.192-.018.98.98,0,0,1,.49.13l5.508,2.976c.006.031.006.061.014.091a2.005,2.005,0,0,0,1.933,1.48,4.914,4.914,0,0,0,.824-.147l5.195-1.39-.258-.966-5.178,1.384c-.228.052-.522.113-.583.118a1,1,0,0,1-.967-.737.913.913,0,0,1-.029-.185s0-.121,0-.164a1.011,1.011,0,0,1,.736-.882l5.772-1.544a3.5,3.5,0,0,1,.9-.119h1.917a1.5,1.5,0,0,1,.771.213l1.788,1.07v5.386Zm2.834-7.9h3v8h-3Zm0,0" transform="translate(-62.423 -300)" fill="#666"/><path d="M20.622,4,17.94,1.318A4.469,4.469,0,0,0,14.758,0H8.472A2.517,2.517,0,0,0,7.354.264L6.233.824a1.482,1.482,0,0,1-.725.157L5,.963V0H0V11H5V9.5h.85l.3.2A5.512,5.512,0,0,0,9,10.616V17H30V4ZM4,10H1V1H4ZM6.706,8.868,6.15,8.5H5V1.964l.471.017A2.51,2.51,0,0,0,6.68,1.719L7.8,1.158A1.5,1.5,0,0,1,8.472,1h6.286a3.476,3.476,0,0,1,2.475,1.025L19.208,4H15.082L13.868,2.786l-.707.707,3.532,3.532a1,1,0,1,1-1.415,1.421L12.329,5.5l-.35.3a2.65,2.65,0,0,1-3.37.05l-.29-.235-.63.777.293.238A3.645,3.645,0,0,0,9,7.2V9.616A4.509,4.509,0,0,1,6.706,8.868ZM13.819,8.4l.754.755a2.014,2.014,0,0,0,2.825,0,2.531,2.531,0,1,0,.284-.363A1.966,1.966,0,0,0,17.846,7h6.7A3.008,3.008,0,0,0,27,9.458v2.083A3.008,3.008,0,0,0,24.542,14H14.458A3.008,3.008,0,0,0,12,11.541V9.458A2.985,2.985,0,0,0,13.819,8.4ZM18,10.5A1.5,1.5,0,1,1,19.5,12,1.5,1.5,0,0,1,18,10.5ZM29,16H10V7.409a3.636,3.636,0,0,0,2.25-.575l.853.853a2,2,0,0,1-1.6.812H11v4h.5a2,2,0,0,1,2,2V15h12v-.5a2,2,0,0,1,2-2H28v-4h-.5a2,2,0,0,1-2-2V6H17.082l-1-1H29Zm0,0" fill="#666"/></g></svg>