<svg xmlns="http://www.w3.org/2000/svg" width="24" height="24.026" viewBox="0 0 24 24.026"><g transform="translate(-0.001 0)"><path d="M229.695,387.529a.469.469,0,1,0,.663,0A.469.469,0,0,0,229.695,387.529Zm0,0" transform="translate(-218.785 -369.213)" fill="#49b742"/><path d="M22.943,17.5l-3.563-3.029a.481.481,0,0,0-.052-.038,2.332,2.332,0,0,0-2.918.32L14.468,16.7a.468.468,0,0,1-.511.1A12.729,12.729,0,0,1,8.6,12.738a9.446,9.446,0,0,1-1.461-2.6.466.466,0,0,0-.028-.1.467.467,0,0,1,.1-.511L9.156,7.591a2.332,2.332,0,0,0,.32-2.918L9.462,4.65,6.889,1.075A2.346,2.346,0,0,0,3.258.687l-.389.389h0L1.48,2.466C-.176,4.122-.447,6.61.7,9.663A23.878,23.878,0,0,0,6.218,17.72a23.99,23.99,0,0,0,8.275,5.624c2.667.974,5.5,1.094,7.511-.914l1.31-1.309A2.346,2.346,0,0,0,22.943,17.5ZM18.8,15.209l3.56,3.027a.462.462,0,0,0,.052.038,1.408,1.408,0,0,1,.239,2.183l-.1.1-6.071-4.545.592-.592A1.4,1.4,0,0,1,18.8,15.209ZM6.1,1.59l.015.022L8.692,5.187a1.4,1.4,0,0,1-.2,1.74L7.919,7.5,3.812,1.461l.11-.11A1.408,1.408,0,0,1,6.1,1.59Zm8.71,20.872a23.045,23.045,0,0,1-7.933-5.406A22.933,22.933,0,0,1,1.575,9.334c-.7-1.87-1.171-4.465.568-6.2l.993-.993,4.107,6.04-.693.693a1.4,1.4,0,0,0-.321,1.494,10.422,10.422,0,0,0,1.517,2.8,13.764,13.764,0,0,0,5.851,4.5,1.4,1.4,0,0,0,1.533-.305l.68-.68,6.071,4.545-.542.542C19.476,23.631,16.763,23.174,14.815,22.462Zm0,0" fill="#49b742"/><path d="M99.6,257.544c-.5-.435-1.353-1.182-1.8-1.647a30.848,30.848,0,0,1-2.959-3.513.469.469,0,1,0-.771.535,31.783,31.783,0,0,0,3.058,3.633c.477.491,1.341,1.245,1.858,1.7a.469.469,0,1,0,.619-.706Zm0,0" transform="translate(-89.57 -240.349)" fill="#49b742"/></g></svg>