<svg xmlns="http://www.w3.org/2000/svg" width="144" height="151.714" viewBox="0 0 144 151.714"><g transform="translate(-12)"><path d="M95.086,175.771a10.246,10.246,0,0,0,14.657,0l46.286-46.286a10.246,10.246,0,0,0,0-14.657l-71.229-72A11.2,11.2,0,0,0,77.343,40H30.286A10.316,10.316,0,0,0,20,50.286V97.343a9.338,9.338,0,0,0,3.086,7.2ZM45.714,50.286A15.429,15.429,0,1,1,30.286,65.714,15.474,15.474,0,0,1,45.714,50.286Z" transform="translate(-5.429 -27.143)" fill="rgba(73,183,66,0.5)"/><g transform="translate(12)"><path d="M22.543,75.6c-.257,3.086-.257,6.171-.257,9.257,0,2.314.257,54,12.857,54,8.486,0,11.314-22.371,12.343-38.314L87.857,140.4a13.1,13.1,0,0,0,9,3.857,12.062,12.062,0,0,0,9-3.857l46.286-46.286a13.1,13.1,0,0,0,3.857-9,12.062,12.062,0,0,0-3.857-9l-71.229-72a11.088,11.088,0,0,0-9-4.114H24.857A12.732,12.732,0,0,0,12,12.857V59.914a12.062,12.062,0,0,0,3.857,9Zm12.6,58.114c-2.829-1.029-7.714-18.514-7.714-48.857V80.743L42.6,95.657C41.571,119.314,37.457,132.686,35.143,133.714Zm-18-120.857a7.577,7.577,0,0,1,7.714-7.714H71.914a7,7,0,0,1,5.4,2.314l71.229,72a7.4,7.4,0,0,1,2.314,5.4,7,7,0,0,1-2.314,5.4l-46.286,46.286a7.933,7.933,0,0,1-10.8,0L47.743,93.6C48,88.714,48,85.371,48,84.857c0-1.543,0-23.657-3.6-39.086a17.915,17.915,0,1,0-16.2-4.114.252.252,0,0,1,.257.257,17.707,17.707,0,0,0,10.8,4.371c1.8,8.229,3.6,21.343,3.6,38.571v3.857l-23.4-23.143a7.977,7.977,0,0,1-2.314-5.657ZM27.429,28.286a12.857,12.857,0,0,1,25.714,0,12.973,12.973,0,0,1-10.029,12.6c-1.8-5.914-4.371-10.029-7.971-10.029-2.571,0-4.371,2.057-5.657,4.371A12.933,12.933,0,0,1,27.429,28.286ZM35.143,36c.771.257,1.8,2.057,2.829,4.886a17.228,17.228,0,0,1-4.629-1.8A11.134,11.134,0,0,1,35.143,36Z" transform="translate(-12 0)" fill="#666"/><path d="M289.343,320.771l-20.571,20.571a2.486,2.486,0,0,0,0,3.6,2.486,2.486,0,0,0,3.6,0l20.571-20.571a2.546,2.546,0,1,0-3.6-3.6Z" transform="translate(-185.714 -217.143)" fill="#666"/><path d="M364.771,270.657a2.486,2.486,0,0,0,3.6,0l10.286-10.286a2.546,2.546,0,0,0-3.6-3.6l-10.286,10.286A2.486,2.486,0,0,0,364.771,270.657Z" transform="translate(-250.857 -173.714)" fill="#666"/><path d="M250.657,320.771a2.486,2.486,0,0,0-3.6,0l-10.286,10.286a2.486,2.486,0,0,0,0,3.6,2.486,2.486,0,0,0,3.6,0l10.286-10.286A2.486,2.486,0,0,0,250.657,320.771Z" transform="translate(-164 -217.143)" fill="#666"/><path d="M300.771,248.943a2.486,2.486,0,0,0,3.6,0l20.571-20.571a2.546,2.546,0,1,0-3.6-3.6l-20.571,20.571A2.486,2.486,0,0,0,300.771,248.943Z" transform="translate(-207.429 -152)" fill="#666"/><path d="M206.571,238.286a2.334,2.334,0,0,0,1.8-.771l41.143-41.143a2.546,2.546,0,1,0-3.6-3.6l-41.143,41.143a2.486,2.486,0,0,0,0,3.6A2.334,2.334,0,0,0,206.571,238.286Z" transform="translate(-142.286 -130.286)" fill="#666"/><path d="M206.571,180a2.429,2.429,0,0,0,2.571-2.571V146.571a2.571,2.571,0,0,0-5.143,0v30.857A2.429,2.429,0,0,0,206.571,180Z" transform="translate(-142.286 -97.714)" fill="#666"/><path d="M230.571,188.571A2.429,2.429,0,0,0,233.143,186V170.571a2.571,2.571,0,1,0-5.143,0V186A2.429,2.429,0,0,0,230.571,188.571Z" transform="translate(-158.571 -114)" fill="#666"/><path d="M182.571,188.571A2.429,2.429,0,0,0,185.143,186V170.571a2.571,2.571,0,0,0-5.143,0V186A2.429,2.429,0,0,0,182.571,188.571Z" transform="translate(-126 -114)" fill="#666"/></g></g></svg>