<svg xmlns="http://www.w3.org/2000/svg" width="155.138" height="144.439" viewBox="0 0 155.138 144.439"><g transform="translate(0 -16)"><ellipse cx="26.5" cy="27" rx="26.5" ry="27" transform="translate(24.569 29.219)" fill="rgba(73,183,66,0.5)"/><g transform="translate(0 16)"><path d="M328.024,208a8.024,8.024,0,1,0,8.024,8.024A7.881,7.881,0,0,0,328.024,208Zm0,10.7a2.675,2.675,0,1,1,2.675-2.675A2.527,2.527,0,0,1,328.024,218.7Z" transform="translate(-213.008 -143.805)" fill="#666"/><path d="M120.171,314.8c-27.55,0-50.821-18.456-50.821-40.122a2.675,2.675,0,1,0-5.35,0c0,24.608,25.678,45.471,56.171,45.471a2.675,2.675,0,0,0,0-5.35Z" transform="translate(-42.602 -186.407)" fill="#666"/><path d="M93.423,74.845A29.423,29.423,0,1,0,64,45.423,29.338,29.338,0,0,0,93.423,74.845Zm0-53.5A24.073,24.073,0,1,1,69.35,45.423,23.973,23.973,0,0,1,93.423,21.35Z" transform="translate(-42.602 -16)" fill="#666"/><path d="M147.113,133.474h-2.675a2.569,2.569,0,0,1-2.407-1.872c-4.547-13.641-15.246-25.411-29.69-32.9V82.653a2.339,2.339,0,0,0-1.6-2.407,2.442,2.442,0,0,0-2.942.535L95.758,92.817a73.319,73.319,0,0,0-7.489-1.337,2.65,2.65,0,0,0-2.942,2.14,35.018,35.018,0,0,1-34.5,29.155,34.582,34.582,0,0,1-23.538-9.094,2.889,2.889,0,0,0-1.872-.8,2.428,2.428,0,0,0-1.872.8A52.446,52.446,0,0,0,10.7,144.173a5.708,5.708,0,0,1-3.21-1.872,8.557,8.557,0,0,1-2.14-6.152V125.182A10.332,10.332,0,0,1,7.222,119.3a9.9,9.9,0,0,1,6.152-1.872,2.675,2.675,0,0,0,0-5.35,13.306,13.306,0,0,0-9.9,3.745C0,119.565,0,124.647,0,125.45v10.7a13.306,13.306,0,0,0,3.745,9.9,12.494,12.494,0,0,0,6.954,3.21,51.041,51.041,0,0,0,13.106,31.3L21.4,188.842a2.566,2.566,0,0,0,.8,2.675l10.7,10.7a2.586,2.586,0,0,0,3.745,0l6.954-6.954a78.261,78.261,0,0,0,67.94,0l6.954,6.954a2.586,2.586,0,0,0,3.745,0l10.7-10.7a2.566,2.566,0,0,0,.8-2.675l-2.675-8.292a54.5,54.5,0,0,0,10.967-18.456,2.569,2.569,0,0,1,2.407-1.872h2.675a7.881,7.881,0,0,0,8.024-8.024V141.5A7.881,7.881,0,0,0,147.113,133.474Zm2.675,18.724a2.527,2.527,0,0,1-2.675,2.675h-2.675a7.791,7.791,0,0,0-7.489,5.35,50.5,50.5,0,0,1-10.7,17.654,3.11,3.11,0,0,0-.535,2.675l2.407,8.292-7.757,7.757-6.42-6.419a2.845,2.845,0,0,0-3.21-.535,69.871,69.871,0,0,1-33.167,8.024A69.871,69.871,0,0,1,44.4,189.645a2,2,0,0,0-1.337-.267,2.428,2.428,0,0,0-1.872.8L34.772,196.6l-7.757-7.757,2.407-8.292a3.294,3.294,0,0,0-.535-2.675c-8.292-8.827-12.839-19.526-12.839-31.028,0-9.9,3.477-19.258,9.9-27.55A39.9,39.9,0,0,0,89.873,97.1a37.958,37.958,0,0,1,5.885,1.337,2.714,2.714,0,0,0,2.675-.8l8.559-8.559v11.5a2.57,2.57,0,0,0,1.6,2.407c13.909,6.687,24.073,17.654,28.353,30.493a7.791,7.791,0,0,0,7.489,5.35h2.675a2.527,2.527,0,0,1,2.675,2.675v10.7Z" transform="translate(0 -58.58)" fill="#666"/><path d="M235.5,272.8l-10.7,10.7a2.586,2.586,0,0,0,0,3.745,2.586,2.586,0,0,0,3.745,0l10.7-10.7A2.648,2.648,0,1,0,235.5,272.8Z" transform="translate(-149.106 -186.407)" fill="#666"/><path d="M214.2,240.8l-21.4,21.4a2.586,2.586,0,0,0,0,3.745,2.586,2.586,0,0,0,3.745,0l21.4-21.4A2.648,2.648,0,1,0,214.2,240.8Z" transform="translate(-127.805 -165.106)" fill="#666"/><path d="M194.675,256.049a2.428,2.428,0,0,0,1.872-.8l10.7-10.7A2.648,2.648,0,1,0,203.5,240.8l-10.7,10.7a2.586,2.586,0,0,0,0,3.745A2.428,2.428,0,0,0,194.675,256.049Z" transform="translate(-127.805 -165.106)" fill="#666"/><path d="M146.675,117.4A18.608,18.608,0,0,0,165.4,98.675a2.675,2.675,0,1,0-5.35,0,13.244,13.244,0,0,1-13.374,13.374,2.675,2.675,0,0,0,0,5.35Z" transform="translate(-95.854 -69.252)" fill="#666"/></g></g></svg>