<svg xmlns="http://www.w3.org/2000/svg" width="139.685" height="162.034" viewBox="0 0 139.685 162.034"><g transform="translate(-32)"><g transform="translate(45.968 13.968)"><path d="M201.524,62.35V51.175h5.587a5.587,5.587,0,1,0,0-11.175H173.587a5.587,5.587,0,0,0,0,11.175h5.587V62.35Z" transform="translate(-134.476 -40)" fill="rgba(73,183,66,0.5)"/><path d="M72,191.874A55.874,55.874,0,1,0,127.874,136,56.038,56.038,0,0,0,72,191.874Zm55.874-44.7a44.7,44.7,0,1,1-44.7,44.7A44.83,44.83,0,0,1,127.874,147.175Z" transform="translate(-72 -102.476)" fill="rgba(73,183,66,0.5)"/></g><g transform="translate(32)"><path d="M32,92.192a69.842,69.842,0,1,0,115.379-52.8l4.749-4.749,3.632,3.632a2.7,2.7,0,0,0,3.911,0,2.7,2.7,0,0,0,0-3.911L148.5,23.188a2.766,2.766,0,1,0-3.911,3.911l3.632,3.632-5.029,5.029a69.041,69.041,0,0,0-27.378-12.013V16.762H118.6a8.231,8.231,0,0,0,8.381-8.381A8.231,8.231,0,0,0,118.6,0H85.08A8.231,8.231,0,0,0,76.7,8.381a8.231,8.231,0,0,0,8.381,8.381h2.794v6.984A69.041,69.041,0,0,0,60.5,35.759l-5.029-5.029L59.1,27.1a2.766,2.766,0,0,0-3.911-3.911L44.572,33.8a2.7,2.7,0,0,0,0,3.911,2.7,2.7,0,0,0,3.911,0l3.073-3.073,4.749,4.749A70.03,70.03,0,0,0,32,92.192Zm134.1,0a64.255,64.255,0,1,1-64.255-64.255A64.264,64.264,0,0,1,166.1,92.192ZM93.461,16.762h8.381a2.639,2.639,0,0,0,2.794-2.794,2.639,2.639,0,0,0-2.794-2.794H85.08a2.639,2.639,0,0,1-2.794-2.794A2.639,2.639,0,0,1,85.08,5.587H118.6A2.639,2.639,0,0,1,121.4,8.381a2.639,2.639,0,0,1-2.794,2.794h-5.587a2.639,2.639,0,0,0-2.794,2.794v8.94c-2.794-.279-5.587-.559-8.381-.559s-5.587.279-8.381.559Z" transform="translate(-32)" fill="#666"/><path d="M122.668,207.748a53.08,53.08,0,0,1,0-106.16,2.794,2.794,0,1,0,0-5.587,58.668,58.668,0,1,0,58.668,58.668,2.794,2.794,0,0,0-5.587,0A53.057,53.057,0,0,1,122.668,207.748Z" transform="translate(-52.825 -62.476)" fill="#666"/><path d="M226.794,128A2.639,2.639,0,0,0,224,130.794v11.175a2.794,2.794,0,0,0,5.587,0v-8.381a42.005,42.005,0,0,1,0,83.811v-8.381a2.794,2.794,0,1,0-5.587,0v11.175a2.639,2.639,0,0,0,2.794,2.794,47.493,47.493,0,0,0,0-94.986Z" transform="translate(-156.951 -83.301)" fill="#666"/><circle cx="2.794" cy="2.794" r="2.794" transform="translate(36.318 58.668)" fill="#666"/><circle cx="2.794" cy="2.794" r="2.794" transform="translate(25.143 89.398)" fill="#666"/><circle cx="2.794" cy="2.794" r="2.794" transform="translate(36.318 120.129)" fill="#666"/><path d="M230.274,192.838a2.7,2.7,0,0,0-3.911,0L213.791,205.41a15.019,15.019,0,0,0-7.822-2.235,13.968,13.968,0,1,0,13.968,13.968,15.018,15.018,0,0,0-2.235-7.822l12.572-12.572A2.7,2.7,0,0,0,230.274,192.838ZM214.35,217.143a8.381,8.381,0,1,1-8.381-8.381,7.733,7.733,0,0,1,3.632.838l-5.587,5.587a2.7,2.7,0,0,0,0,3.911,2.7,2.7,0,0,0,3.911,0l5.587-5.587A7.733,7.733,0,0,1,214.35,217.143Z" transform="translate(-136.126 -124.951)" fill="#666"/></g></g></svg>